<?xml version="1.0" encoding="UTF-8" standalone="no"?><svg xmlns="http://www.w3.org/2000/svg" xmlns:xlink="http://www.w3.org/1999/xlink" contentScriptType="application/ecmascript" contentStyleType="text/css" height="263px" preserveAspectRatio="none" style="width:469px;height:263px;" version="1.1" viewBox="0 0 469 263" width="469px" zoomAndPan="magnify"><defs><filter height="300%" id="fjvg3e7qcj0t1" width="300%" x="-1" y="-1"><feGaussianBlur result="blurOut" stdDeviation="2.0"/><feColorMatrix in="blurOut" result="blurOut2" type="matrix" values="0 0 0 0 0 0 0 0 0 0 0 0 0 0 0 0 0 0 .4 0"/><feOffset dx="4.0" dy="4.0" in="blurOut2" result="blurOut3"/><feBlend in="SourceGraphic" in2="blurOut3" mode="normal"/></filter></defs><g><!--MD5=[21ab09ffd5d05f413c587b952aee3778]
entity base--><rect fill="#FEFECE" filter="url(#fjvg3e7qcj0t1)" height="36.2969" style="stroke: #000000; stroke-width: 1.5;" width="54" x="179" y="8"/><text fill="#000000" font-family="sans-serif" font-size="14" lengthAdjust="spacingAndGlyphs" textLength="34" x="189" y="30.9951">base</text><!--MD5=[5b51bb1de19c3d8b5b77ed0ba391435e]
entity dotnet--><rect fill="#FEFECE" filter="url(#fjvg3e7qcj0t1)" height="36.2969" style="stroke: #000000; stroke-width: 1.5;" width="47" x="16.5" y="104"/><text fill="#000000" font-family="sans-serif" font-size="14" lengthAdjust="spacingAndGlyphs" textLength="27" x="26.5" y="126.9951">.net</text><!--MD5=[f35a8ea5a03aa35ec4be5e3defd7a1a2]
entity go--><rect fill="#FEFECE" filter="url(#fjvg3e7qcj0t1)" height="36.2969" style="stroke: #000000; stroke-width: 1.5;" width="38" x="99" y="104"/><text fill="#000000" font-family="sans-serif" font-size="14" lengthAdjust="spacingAndGlyphs" textLength="18" x="109" y="126.9951">go</text><!--MD5=[c15c44eddbde3698217cfa31d0e69e09]
entity python--><rect fill="#FEFECE" filter="url(#fjvg3e7qcj0t1)" height="36.2969" style="stroke: #000000; stroke-width: 1.5;" width="68" x="172" y="104"/><text fill="#000000" font-family="sans-serif" font-size="14" lengthAdjust="spacingAndGlyphs" textLength="48" x="182" y="126.9951">python</text><!--MD5=[c94b6489c66679e8661f8f21a18bd51a]
entity rust--><rect fill="#FEFECE" filter="url(#fjvg3e7qcj0t1)" height="36.2969" style="stroke: #000000; stroke-width: 1.5;" width="47" x="275.5" y="104"/><text fill="#000000" font-family="sans-serif" font-size="14" lengthAdjust="spacingAndGlyphs" textLength="27" x="285.5" y="126.9951">rust</text><!--MD5=[4c2941fc370d514d93699c1b32a2ff4b]
entity k8s--><rect fill="#FEFECE" filter="url(#fjvg3e7qcj0t1)" height="36.2969" style="stroke: #000000; stroke-width: 1.5;" width="100" x="358" y="104"/><text fill="#000000" font-family="sans-serif" font-size="14" lengthAdjust="spacingAndGlyphs" textLength="80" x="368" y="126.9951">kubernetes</text><!--MD5=[7479300c0708850d865a7b6152bdfced]
entity your1--><rect fill="#FEFECE" filter="url(#fjvg3e7qcj0t1)" height="52.5938" style="stroke: #000000; stroke-width: 1.5;" width="68" x="6" y="200"/><text fill="#000000" font-family="sans-serif" font-size="14" lengthAdjust="spacingAndGlyphs" textLength="30" x="16" y="222.9951">your</text><text fill="#000000" font-family="sans-serif" font-size="14" lengthAdjust="spacingAndGlyphs" textLength="48" x="16" y="239.292">project</text><!--MD5=[129d7960f52d9a5d186605e6e87c1394]
entity your2--><rect fill="#FEFECE" filter="url(#fjvg3e7qcj0t1)" height="52.5938" style="stroke: #000000; stroke-width: 1.5;" width="68" x="172" y="200"/><text fill="#000000" font-family="sans-serif" font-size="14" lengthAdjust="spacingAndGlyphs" textLength="30" x="182" y="222.9951">your</text><text fill="#000000" font-family="sans-serif" font-size="14" lengthAdjust="spacingAndGlyphs" textLength="48" x="182" y="239.292">project</text><!--MD5=[fef2c43b2692dceb9c619bb985ec6cde]
link base to dotnet--><path d="M178.96,20 C131.92,20 40,20 40,20 C40,20 40,98.76 40,98.76 " fill="none" id="base-&gt;dotnet" style="stroke: #A80036; stroke-width: 1.0;"/><polygon fill="#A80036" points="40,103.76,44,94.76,40,98.76,36,94.76,40,103.76" style="stroke: #A80036; stroke-width: 1.0;"/><!--MD5=[b723e9abe612966d0debf5af191ac3cb]
link base to go--><path d="M178.64,32 C152.81,32 118,32 118,32 C118,32 118,98.79 118,98.79 " fill="none" id="base-&gt;go" style="stroke: #A80036; stroke-width: 1.0;"/><polygon fill="#A80036" points="118,103.79,122,94.79,118,98.79,114,94.79,118,103.79" style="stroke: #A80036; stroke-width: 1.0;"/><!--MD5=[f6d4c46d14c36488bf970d3ebbaeb85c]
link base to python--><path d="M206,44.06 C206,44.06 206,98.7 206,98.7 " fill="none" id="base-&gt;python" style="stroke: #A80036; stroke-width: 1.0;"/><polygon fill="#A80036" points="206,103.7,210,94.7,206,98.7,202,94.7,206,103.7" style="stroke: #A80036; stroke-width: 1.0;"/><!--MD5=[08e2a6d92a9d1ed40b9057a27ca55d60]
link base to rust--><path d="M233.4,32 C260.83,32 299,32 299,32 C299,32 299,98.79 299,98.79 " fill="none" id="base-&gt;rust" style="stroke: #A80036; stroke-width: 1.0;"/><polygon fill="#A80036" points="299,103.79,303,94.79,299,98.79,295,94.79,299,103.79" style="stroke: #A80036; stroke-width: 1.0;"/><!--MD5=[9a72dda737765e083393b13b02d1d579]
link base to k8s--><path d="M233.24,20 C288.38,20 408,20 408,20 C408,20 408,98.76 408,98.76 " fill="none" id="base-&gt;k8s" style="stroke: #A80036; stroke-width: 1.0;"/><polygon fill="#A80036" points="408,103.76,412,94.76,408,98.76,404,94.76,408,103.76" style="stroke: #A80036; stroke-width: 1.0;"/><!--MD5=[872aa651e6eeb93ba777af7e79229cf9]
link dotnet to your1--><path d="M40,140.2 C40,140.2 40,194.89 40,194.89 " fill="none" id="dotnet-&gt;your1" style="stroke: #A80036; stroke-width: 1.0;"/><polygon fill="#A80036" points="40,199.89,44,190.89,40,194.89,36,190.89,40,199.89" style="stroke: #A80036; stroke-width: 1.0;"/><!--MD5=[75b0bf0b82245cedb5b888d81ea0fa5e]
link python to your2--><path d="M206,140.2 C206,140.2 206,194.89 206,194.89 " fill="none" id="python-&gt;your2" style="stroke: #A80036; stroke-width: 1.0;"/><polygon fill="#A80036" points="206,199.89,210,190.89,206,194.89,202,190.89,206,199.89" style="stroke: #A80036; stroke-width: 1.0;"/><!--MD5=[79e0ece8ef0a660f11eb0a5f78bee6d4]
@startuml devastation_architecture


top to bottom direction
skinparam linetype ortho

rectangle "base" as base
rectangle ".net" as dotnet
rectangle "go" as go
rectangle "python" as python
rectangle "rust" as rust
rectangle "kubernetes" as k8s
rectangle "your\nproject" as your1
rectangle "your\nproject" as your2

base - -> dotnet
base - -> go
base - -> python
base - -> rust
base - -> k8s

dotnet - -> your1
python - -> your2

@enduml

PlantUML version 1.2020.02(Sun Mar 01 10:22:07 GMT 2020)
(GPL source distribution)
Java Runtime: OpenJDK Runtime Environment
JVM: OpenJDK 64-Bit Server VM
Java Version: 11.0.26+4-post-Ubuntu-1ubuntu122.04
Operating System: Linux
Default Encoding: UTF-8
Language: en
Country: US
--></g></svg>