<svg xmlns="http://www.w3.org/2000/svg" xmlns:xlink="http://www.w3.org/1999/xlink" contentStyleType="text/css" data-diagram-type="DESCRIPTION" height="262px" preserveAspectRatio="none" style="width:468px;height:262px;background:#282828;" version="1.1" viewBox="0 0 468 262" width="468px" zoomAndPan="magnify"><defs/><g><rect fill="#282828" height="262" style="stroke:none;stroke-width:1;" width="468" x="0" y="0"/><!--entity base--><g class="entity" data-entity="base" data-source-line="9" data-uid="ent0002" id="entity_base"><rect fill="#282828" height="36.2969" rx="2.5" ry="2.5" style="stroke:#FFB000;stroke-width:1;" width="53.373" x="185" y="12"/><text fill="#FFB000" font-family="Verdana" font-size="14" lengthAdjust="spacing" textLength="33.373" x="195" y="34.9951">base</text></g><!--entity dotnet--><g class="entity" data-entity="dotnet" data-source-line="10" data-uid="ent0003" id="entity_dotnet"><rect fill="#282828" height="36.2969" rx="2.5" ry="2.5" style="stroke:#FFB000;stroke-width:1;" width="47.4258" x="23" y="108"/><text fill="#FFB000" font-family="Verdana" font-size="14" lengthAdjust="spacing" textLength="27.4258" x="33" y="130.9951">.net</text></g><!--entity go--><g class="entity" data-entity="go" data-source-line="11" data-uid="ent0004" id="entity_go"><rect fill="#282828" height="36.2969" rx="2.5" ry="2.5" style="stroke:#FFB000;stroke-width:1;" width="37.4521" x="105" y="108"/><text fill="#FFB000" font-family="Verdana" font-size="14" lengthAdjust="spacing" textLength="17.4521" x="115" y="130.9951">go</text></g><!--entity python--><g class="entity" data-entity="python" data-source-line="12" data-uid="ent0005" id="entity_python"><rect fill="#282828" height="36.2969" rx="2.5" ry="2.5" style="stroke:#FFB000;stroke-width:1;" width="68.9727" x="177" y="108"/><text fill="#FFB000" font-family="Verdana" font-size="14" lengthAdjust="spacing" textLength="48.9727" x="187" y="130.9951">python</text></g><!--entity rust--><g class="entity" data-entity="rust" data-source-line="13" data-uid="ent0006" id="entity_rust"><rect fill="#282828" height="36.2969" rx="2.5" ry="2.5" style="stroke:#FFB000;stroke-width:1;" width="47.4121" x="281" y="108"/><text fill="#FFB000" font-family="Verdana" font-size="14" lengthAdjust="spacing" textLength="27.4121" x="291" y="130.9951">rust</text></g><!--entity k8s--><g class="entity" data-entity="k8s" data-source-line="14" data-uid="ent0007" id="entity_k8s"><rect fill="#282828" height="36.2969" rx="2.5" ry="2.5" style="stroke:#FFB000;stroke-width:1;" width="99.1191" x="363" y="108"/><text fill="#FFB000" font-family="Verdana" font-size="14" lengthAdjust="spacing" textLength="79.1191" x="373" y="130.9951">kubernetes</text></g><!--entity your1--><g class="entity" data-entity="your1" data-source-line="15" data-uid="ent0008" id="entity_your1"><rect fill="#282828" height="52.5938" rx="2.5" ry="2.5" style="stroke:#FFB000;stroke-width:1;" width="68.8975" x="12" y="204"/><text fill="#FFB000" font-family="Verdana" font-size="14" lengthAdjust="spacing" textLength="31.4795" x="22" y="226.9951">your</text><text fill="#FFB000" font-family="Verdana" font-size="14" lengthAdjust="spacing" textLength="48.8975" x="22" y="243.292">project</text></g><!--entity your2--><g class="entity" data-entity="your2" data-source-line="16" data-uid="ent0009" id="entity_your2"><rect fill="#282828" height="52.5938" rx="2.5" ry="2.5" style="stroke:#FFB000;stroke-width:1;" width="68.8975" x="177" y="204"/><text fill="#FFB000" font-family="Verdana" font-size="14" lengthAdjust="spacing" textLength="31.4795" x="187" y="226.9951">your</text><text fill="#FFB000" font-family="Verdana" font-size="14" lengthAdjust="spacing" textLength="48.8975" x="187" y="243.292">project</text></g><!--link base to dotnet--><g class="link" data-entity-1="base" data-entity-2="dotnet" data-source-line="19" data-uid="lnk10" id="link_base_dotnet"><path d="M184.99,24 C138.35,24 46.5,24 46.5,24 C46.5,24 46.5,72.43 46.5,101.76" fill="none" id="base-to-dotnet" style="stroke:#FFB000;stroke-width:1;"/><polygon fill="#FFB000" points="46.5,107.76,50.5,98.76,46.5,102.76,42.5,98.76,46.5,107.76" style="stroke:#FFB000;stroke-width:1;"/></g><!--link base to go--><g class="link" data-entity-1="base" data-entity-2="go" data-source-line="20" data-uid="lnk11" id="link_base_go"><path d="M184.62,36 C158.74,36 123.5,36 123.5,36 C123.5,36 123.5,75.49 123.5,101.79" fill="none" id="base-to-go" style="stroke:#FFB000;stroke-width:1;"/><polygon fill="#FFB000" points="123.5,107.79,127.5,98.79,123.5,102.79,119.5,98.79,123.5,107.79" style="stroke:#FFB000;stroke-width:1;"/></g><!--link base to python--><g class="link" data-entity-1="base" data-entity-2="python" data-source-line="21" data-uid="lnk12" id="link_base_python"><path d="M211.5,48.06 C211.5,65.11 211.5,84.56 211.5,101.7" fill="none" id="base-to-python" style="stroke:#FFB000;stroke-width:1;"/><polygon fill="#FFB000" points="211.5,107.7,215.5,98.7,211.5,102.7,207.5,98.7,211.5,107.7" style="stroke:#FFB000;stroke-width:1;"/></g><!--link base to rust--><g class="link" data-entity-1="base" data-entity-2="rust" data-source-line="22" data-uid="lnk13" id="link_base_rust"><path d="M238.4,36 C265.87,36 304.5,36 304.5,36 C304.5,36 304.5,75.49 304.5,101.79" fill="none" id="base-to-rust" style="stroke:#FFB000;stroke-width:1;"/><polygon fill="#FFB000" points="304.5,107.79,308.5,98.79,304.5,102.79,300.5,98.79,304.5,107.79" style="stroke:#FFB000;stroke-width:1;"/></g><!--link base to k8s--><g class="link" data-entity-1="base" data-entity-2="k8s" data-source-line="23" data-uid="lnk14" id="link_base_k8s"><path d="M238.19,24 C292.87,24 412.5,24 412.5,24 C412.5,24 412.5,72.43 412.5,101.76" fill="none" id="base-to-k8s" style="stroke:#FFB000;stroke-width:1;"/><polygon fill="#FFB000" points="412.5,107.76,416.5,98.76,412.5,102.76,408.5,98.76,412.5,107.76" style="stroke:#FFB000;stroke-width:1;"/></g><!--link dotnet to your1--><g class="link" data-entity-1="dotnet" data-entity-2="your1" data-source-line="25" data-uid="lnk15" id="link_dotnet_your1"><path d="M46.5,144.2 C46.5,160.69 46.5,179.2 46.5,197.89" fill="none" id="dotnet-to-your1" style="stroke:#FFB000;stroke-width:1;"/><polygon fill="#FFB000" points="46.5,203.89,50.5,194.89,46.5,198.89,42.5,194.89,46.5,203.89" style="stroke:#FFB000;stroke-width:1;"/></g><!--link python to your2--><g class="link" data-entity-1="python" data-entity-2="your2" data-source-line="26" data-uid="lnk16" id="link_python_your2"><path d="M211.5,144.2 C211.5,160.69 211.5,179.2 211.5,197.89" fill="none" id="python-to-your2" style="stroke:#FFB000;stroke-width:1;"/><polygon fill="#FFB000" points="211.5,203.89,215.5,194.89,211.5,198.89,207.5,194.89,211.5,203.89" style="stroke:#FFB000;stroke-width:1;"/></g><!--SRC=[XL0xRiCm3Drr2YPB9mTefawTUeEiMMI7jLLRea3HWszVIcfLPIfWmEz3KdmyoO8UOM8Ph1-HZNc16mge39izQ1TuECP970KGqY_ctqWYvCqJ-oiqQNKXMhOUDXTGZeX0B0lbwH_ugHfCv2C5399Cxh9XtX3Eeqru1fiWWzwuw9XYF4WKzjPCnPYf5-EXpuLYLDYRlASwB8FUM7SzWOx7LEprxMavlGRVGsJwKgqKPENr_v9hbvjni_b6QN4ncHmJXk7zDrRZcgRXdm2DbwqRoqkQsbvutQdsDE5glW40]--></g></svg>